<svg xmlns="http://www.w3.org/2000/svg" viewBox="0 0 600 100">
  <title>fab-logo</title>
  <g>
    <rect width="600" height="100" style="fill: none"/>
    <path d="M77.7,66.1a4.1,4.1,0,0,0,.7-2.2,3.5,3.5,0,0,0-7,0,3.5,3.5,0,0,0,.8,2.2H69.7l1.7,13.2h7l1.7-13.2Z" style="fill: #557490;stroke: #fff;stroke-miterlimit: 10;stroke-width: 1.015297588295509px"/>
    <path d="M561.4,73.6V59.4a4.1,4.1,0,0,1,.1-1.1c0-.2.1-.4.1-.7a4.9,4.9,0,0,1,1.8-2.4,3.9,3.9,0,0,1,4.4,0,4.6,4.6,0,0,1,1.5,1.6,5.3,5.3,0,0,1,.6,2.4V73.8a6.9,6.9,0,0,1-.5,2.4,4.7,4.7,0,0,1-1.9,1.8,3.8,3.8,0,0,1-3.3.1,2.6,2.6,0,0,1-1.1-.7,4.6,4.6,0,0,1-1.5-2.6A2.5,2.5,0,0,1,561.4,73.6Z" style="fill: #ecf0f1;stroke: #fff;stroke-miterlimit: 10;stroke-width: 1.015297588295509px"/>
    <path d="M123.3,53v7.4a5.4,5.4,0,0,0-3.6-1.2,5.6,5.6,0,0,0-3.6,1.2V39.7a6.2,6.2,0,0,0,3.6,1.2,6,6,0,0,0,3.6-1.2v7.5" style="fill: #557490;stroke: #fff;stroke-miterlimit: 10;stroke-width: 1.015297588295509px"/>
    <g>
      <path d="M144.7,37.3a3.6,3.6,0,0,1-3.7,3,3.5,3.5,0,0,1-3.7-3v-.2a6.9,6.9,0,0,0-2.1-4.9,7.3,7.3,0,0,0-5-1.9,6.5,6.5,0,0,0-4.8,1.9,6.3,6.3,0,0,0-2.2,4.9v.2a3.6,3.6,0,0,1-3.7,3,3.4,3.4,0,0,1-3.6-3v-.2c0-7.3,6.5-13.2,14.3-13.2s14.5,5.9,14.5,13.2Z" style="fill: #ecf0f1;stroke: #fff;stroke-miterlimit: 10;stroke-width: 1.015297588295509px"/>
      <path d="M144.7,35.6a3.5,3.5,0,0,1-3.7,2.9c-1.9,0-3.6-1.2-3.7-2.9v-.3a6.7,6.7,0,0,0-2.1-4.8,7.4,7.4,0,0,0-5-2,6.6,6.6,0,0,0-4.8,2,6.1,6.1,0,0,0-2.2,4.8v.3a3.5,3.5,0,0,1-3.7,2.9,3.4,3.4,0,0,1-3.6-2.9v-.3c0-7.2,6.5-13.2,14.3-13.2s14.5,6,14.5,13.2Z" style="fill: #d89194;stroke: #fff;stroke-miterlimit: 10;stroke-width: 1.015297588295509px"/>
    </g>
    <path d="M133.8,54.6H120.2a4.4,4.4,0,0,1-2.1-1.7,4.3,4.3,0,0,1,0-4.1,3.8,3.8,0,0,1,1.4-1.4,4.6,4.6,0,0,1,2-.5h12.3a4.6,4.6,0,0,1,2.1.5,3.5,3.5,0,0,1,1.5,1.7,4,4,0,0,1,.2,3.2l-.6,1a4.4,4.4,0,0,1-2.2,1.4Z" style="fill: #d89194;stroke: #fff;stroke-miterlimit: 10;stroke-width: 1.015297588295509px"/>
    <circle cx="121.4" cy="50.7" r="1.1" style="fill: none;stroke: #fff;stroke-miterlimit: 10;stroke-width: 1.015297588295509px"/>
    <circle cx="133.8" cy="50.7" r="1.1" style="fill: none;stroke: #fff;stroke-miterlimit: 10;stroke-width: 1.015297588295509px"/>
    <circle cx="141" cy="35.7" r="1.1" style="fill: none;stroke: #fff;stroke-miterlimit: 10;stroke-width: 1.015297588295509px"/>
    <circle cx="119.7" cy="35.7" r="1.1" style="fill: none;stroke: #fff;stroke-miterlimit: 10;stroke-width: 1.015297588295509px"/>
    <g>
      <g>
        <path d="M116.1,62.7a3.5,3.5,0,0,1,3.6-3,3.5,3.5,0,0,1,3.7,3v.2a6.6,6.6,0,0,0,2.2,4.9,7,7,0,0,0,4.9,1.9,6.7,6.7,0,0,0,4.9-1.9,6.6,6.6,0,0,0,2.2-4.9v-.2a3.4,3.4,0,0,1,3.6-3,3.6,3.6,0,0,1,3.7,3v.2c0,7.3-6.5,13.2-14.4,13.2s-14.4-5.9-14.4-13.2Z" style="fill: #ecf0f1;stroke: #fff;stroke-miterlimit: 10;stroke-width: 0.5149668099243903px"/>
        <path d="M116.1,64.4a3.5,3.5,0,0,1,3.6-2.9,3.5,3.5,0,0,1,3.7,2.9v.3a6.8,6.8,0,0,0,2.2,4.9,7.5,7.5,0,0,0,4.9,1.9,7.1,7.1,0,0,0,4.9-1.9,6.8,6.8,0,0,0,2.2-4.9v-.3a3.4,3.4,0,0,1,3.6-2.9,3.6,3.6,0,0,1,3.7,2.9v.3c0,7.3-6.5,13.2-14.4,13.2S116.1,72,116.1,64.7Z" style="fill: #21a9b0;stroke: #fff;stroke-miterlimit: 10;stroke-width: 1.015297588295509px"/>
      </g>
      <circle cx="141" cy="65" r="1.1" style="fill: none;stroke: #fff;stroke-miterlimit: 10;stroke-width: 1.015297588295509px"/>
      <circle cx="119.7" cy="65" r="1.1" style="fill: none;stroke: #fff;stroke-miterlimit: 10;stroke-width: 1.015297588295509px"/>
    </g>
    <g>
      <path d="M201.3,32a4.1,4.1,0,0,1-5.1-.4,6.8,6.8,0,0,0-5.2-2.3,6.5,6.5,0,0,0-4.8,1.9A6.4,6.4,0,0,0,184,36a3.6,3.6,0,0,1-7.2,0c0-7.2,6.4-13.1,14.2-13.1a14.7,14.7,0,0,1,10.8,4.6A2.9,2.9,0,0,1,201.3,32Z" style="fill: #ecf0f1;stroke: #fff;stroke-miterlimit: 10;stroke-width: 1.015297588295509px"/>
      <path d="M202.9,32a4.1,4.1,0,0,1-5.1-.4,7.2,7.2,0,0,0-5.3-2.3,6.8,6.8,0,0,0-6.9,6.7,3.7,3.7,0,0,1-7.3,0c0-7.2,6.5-13.1,14.2-13.1a14.8,14.8,0,0,1,10.9,4.6A2.9,2.9,0,0,1,202.9,32Z" style="fill: #d89194;stroke: #fff;stroke-miterlimit: 10;stroke-width: 1.015297588295509px"/>
    </g>
    <circle cx="181.8" cy="36.6" r="1.1" style="fill: none;stroke: #fff;stroke-miterlimit: 10;stroke-width: 1.015297588295509px"/>
    <circle cx="201" cy="29.7" r="1.1" style="fill: none;stroke: #fff;stroke-miterlimit: 10;stroke-width: 1.015297588295509px"/>
    <circle cx="180.5" cy="74.9" r="1.3" style="fill: #00dee7;stroke: #fff;stroke-miterlimit: 10;stroke-width: 1.015297588295509px"/>
    <path d="M226.4,28.5,209.3,75.4a4,4,0,1,1-7.4-2.7L219,25.8l.2-.4a4.1,4.1,0,0,1,5.1-2.5,4.2,4.2,0,0,1,2.3,5.2Z" style="fill: #21a9b0;stroke: #fff;stroke-miterlimit: 10;stroke-width: 1.015297588295509px"/>
    <g>
      <path d="M221.3,28.1a4.1,4.1,0,0,1,2.4-5.2,4.3,4.3,0,0,1,5.2,2.4l.2.4,17,46.6a4.4,4.4,0,0,1-2.3,5.6,4.3,4.3,0,0,1-5.4-2.8l-17-46.6Z" style="fill: #ecf0f1;stroke: #fff;stroke-miterlimit: 10;stroke-width: 1.015297588295509px"/>
      <path d="M219.2,28.1a4.2,4.2,0,0,1,2.4-5.2,4.4,4.4,0,0,1,5.3,2.4l.2.4,17.1,47.1a4.3,4.3,0,0,1-2.3,5.6c-2.1.8-4.6-.5-5.8-2.8L219,28.5Z" style="fill: #d89194;stroke: #fff;stroke-miterlimit: 10;stroke-width: 1.015297588295509px"/>
    </g>
    <circle cx="223.1" cy="27.2" r="1.1" style="fill: none;stroke: #fff;stroke-miterlimit: 10;stroke-width: 1.015297588295509px"/>
    <g>
      <path d="M223,61h-1.2a3.1,3.1,0,0,1-1.7-1.3,3.1,3.1,0,0,1,1.1-4.2,3.3,3.3,0,0,1,1.7-.4h11.2a3.3,3.3,0,0,1,2.9,1.7,2.9,2.9,0,0,1,.1,2.4,2.2,2.2,0,0,1-.5.8,2.8,2.8,0,0,1-1.8,1.1H223Z" style="fill: #557490;stroke: #fff;stroke-miterlimit: 10;stroke-width: 1.015297588295509px"/>
      <path d="M234.1,55.3a4,4,0,0,1,1.5.3,4.3,4.3,0,0,1,1.1,1.2,2.6,2.6,0,0,1,0,2.1,2.5,2.5,0,0,1-.4.7,2.4,2.4,0,0,1-1.6.9H221.9a3.5,3.5,0,0,1-1.5-1.2,2.6,2.6,0,0,1,0-2.7,3.2,3.2,0,0,1,1-1,3.3,3.3,0,0,1,1.5-.3h11.2m0-.8H222.9a4.1,4.1,0,0,0-1.9.5,3.4,3.4,0,0,0-1.2,1.2,3.2,3.2,0,0,0,0,3.5,3.2,3.2,0,0,0,1.9,1.5h13.2a3.4,3.4,0,0,0,2-1.3,2.2,2.2,0,0,0,.5-.8,3.4,3.4,0,0,0-.1-2.8,3.2,3.2,0,0,0-1.4-1.4,3.7,3.7,0,0,0-1.8-.5Z" style="fill: #00dee7;stroke: #fff;stroke-miterlimit: 10;stroke-width: 1.015297588295509px"/>
    </g>
    <circle cx="234" cy="58" r="1.1" style="fill: none;stroke: #fff;stroke-miterlimit: 10;stroke-width: 1.015297588295509px"/>
    <circle cx="223.1" cy="58" r="1.1" style="fill: none;stroke: #fff;stroke-miterlimit: 10;stroke-width: 1.015297588295509px"/>
    <g>
      <path d="M341.4,32a4.1,4.1,0,0,1-5.1-.4,6.8,6.8,0,0,0-5.2-2.3,6.5,6.5,0,0,0-4.8,1.9,6.4,6.4,0,0,0-2.2,4.8,3.6,3.6,0,0,1-7.2,0c0-7.2,6.4-13.1,14.2-13.1a14.7,14.7,0,0,1,10.8,4.6A2.9,2.9,0,0,1,341.4,32Zm-9.1,15.5c2.1,0,3.8,1.4,3.8,3.2s-1.7,3.1-3.8,3.1h-7.4V75.1c0,1.8-1.7,3.2-3.8,3.2s-3.9-1.4-3.9-3.2V39.3a7.2,7.2,0,0,0,3.9,1.2,6,6,0,0,0,3.8-1.3v8.3Z" style="fill: #557490"/>
      <path d="M342.9,32a3.9,3.9,0,0,1-5-.4,7.2,7.2,0,0,0-5.3-2.3,6.8,6.8,0,0,0-6.9,6.7,3.6,3.6,0,0,1-3.7,3.2,3.5,3.5,0,0,1-3.6-3.2c0-7.2,6.4-13.1,14.2-13.1a14.8,14.8,0,0,1,10.9,4.6A2.8,2.8,0,0,1,342.9,32Z" style="fill: #d89194;stroke: #fff;stroke-miterlimit: 10;stroke-width: 1.015297588295509px"/>
    </g>
    <circle cx="321.9" cy="36.6" r="1.1" style="fill: none;stroke: #fff;stroke-miterlimit: 10;stroke-width: 1.015297588295509px"/>
    <circle cx="341.1" cy="29.7" r="1.1" style="fill: none;stroke: #fff;stroke-miterlimit: 10;stroke-width: 1.015297588295509px"/>
    <circle cx="380.6" cy="74.9" r="1.1" style="fill: #00dee7;stroke: #fff;stroke-miterlimit: 10;stroke-width: 1.015297588295509px"/>
    <path d="M374.1,62.5H361.8a3.5,3.5,0,0,1-1.9-1.4,3.3,3.3,0,0,1,0-3.6,3.4,3.4,0,0,1,1.2-1.2,4.1,4.1,0,0,1,1.9-.4h11.2a3.9,3.9,0,0,1,1.8.4,4,4,0,0,1,1.4,1.5,3.2,3.2,0,0,1,.1,2.7,4.1,4.1,0,0,1-.5.9,3.7,3.7,0,0,1-2,1.2Z" style="fill: #ecf0f1;stroke: #fff;stroke-miterlimit: 10;stroke-width: 1.015297588295509px"/>
    <path d="M366.5,28.5,349.4,75.4a4,4,0,1,1-7.4-2.7l17.1-46.9.2-.4a4.1,4.1,0,0,1,5.1-2.5,4.2,4.2,0,0,1,2.3,5.2Z" style="fill: #21a9b0"/>
    <g>
      <path d="M361.3,28.1a4.1,4.1,0,0,1,7.7-2.8l.2.4,17,46.6a4.4,4.4,0,0,1-2.3,5.6,4.3,4.3,0,0,1-5.4-2.8l-17-46.6Z" style="fill: #ecf0f1;stroke: #fff;stroke-miterlimit: 10;stroke-width: 1.015297588295509px"/>
      <path d="M359.3,28.1a4.1,4.1,0,0,1,2.4-5.2,4.4,4.4,0,0,1,5.3,2.4v.4l17.2,47.1a4.4,4.4,0,0,1-2.3,5.6,4.3,4.3,0,0,1-5.4-2.8L359.4,28.5Z" style="fill: #d89194;stroke: #fff;stroke-miterlimit: 10;stroke-width: 1.015297588295509px"/>
    </g>
    <circle cx="363.2" cy="27.2" r="1.1" style="fill: none;stroke: #fff;stroke-miterlimit: 10;stroke-width: 1.015297588295509px"/>
    <path d="M374.1,61.4H361.8a3.2,3.2,0,0,1-1.9-1.5,3.2,3.2,0,0,1,0-3.5,3.4,3.4,0,0,1,1.2-1.2,4.1,4.1,0,0,1,1.9-.5h11.2a4.1,4.1,0,0,1,1.8.5,3.2,3.2,0,0,1,1.4,1.4,3.4,3.4,0,0,1,.1,2.8,2.2,2.2,0,0,1-.5.8,3.4,3.4,0,0,1-2,1.3Z" style="fill: #557490"/>
    <circle cx="374.1" cy="58" r="1.1" style="fill: none;stroke: #fff;stroke-miterlimit: 10;stroke-width: 1.015297588295509px"/>
    <circle cx="363.2" cy="58" r="1.1" style="fill: none;stroke: #fff;stroke-miterlimit: 10;stroke-width: 1.015297588295509px"/>
    <g>
      <path d="M279.2,46.9a3.5,3.5,0,0,1-4.7.1,3.3,3.3,0,0,1-1.1-4.5v-.2a7,7,0,0,0,1.3-5.2,7.4,7.4,0,0,0-2.8-4.6,6.9,6.9,0,0,0-5-1.4,6.5,6.5,0,0,0-4.7,2.5l-.2.2a3.7,3.7,0,0,1-5.8-4.4l.2-.2c4.4-5.8,13.2-6.5,19.4-1.7s7.9,13.5,3.4,19.2Z" style="fill: #ecf0f1;stroke: #fff;stroke-miterlimit: 10;stroke-width: 1.015297588295509px"/>
      <path d="M280.2,45.5a3.5,3.5,0,0,1-4.7.2,3.6,3.6,0,0,1-1.1-4.6l.2-.2a6.9,6.9,0,0,0,1.2-5.2,7,7,0,0,0-2.7-4.5,6.8,6.8,0,0,0-5-1.5,6.5,6.5,0,0,0-4.8,2.6h-.1a3.5,3.5,0,0,1-4.7.2,3.6,3.6,0,0,1-1.1-4.6v-.2c4.5-5.8,13.2-6.5,19.5-1.7s7.8,13.5,3.4,19.3Z" style="fill: #557490;stroke: #fff;stroke-miterlimit: 10;stroke-width: 1.015297588295509px"/>
    </g>
    <path d="M280.4,55.5c4.4,5.8,2.9,14.4-3.4,19.3s-15,4-19.5-1.7v-.2a3.5,3.5,0,0,1,1.1-4.6,3.5,3.5,0,0,1,4.7.1v.2a6.4,6.4,0,0,0,4.8,2.5,6.7,6.7,0,0,0,5-1.4,7.3,7.3,0,0,0,2.7-4.5,6.7,6.7,0,0,0-1.2-5.2l-.2-.2a3.6,3.6,0,0,1,1.1-4.6,3.5,3.5,0,0,1,4.7.1Z" style="fill: #21a9b0;stroke: #fff;stroke-miterlimit: 10;stroke-width: 1.015297588295509px"/>
    <path d="M262.2,65.5a4,4,0,0,0-3.2-1.7,4.1,4.1,0,0,0-3.2,1.7V36.1a4.6,4.6,0,0,0,3.2,1.8,4.4,4.4,0,0,0,3.2-1.8" style="fill: #557490;stroke: #fff;stroke-miterlimit: 10;stroke-width: 1.015297588295509px"/>
    <g>
      <g>
        <path d="M271,53.6h-.3l-.8-.2-10.5-3.3-.6-.3-.5-.3a3,3,0,0,1-1.2-1.7,2.9,2.9,0,0,1,1-3,2.3,2.3,0,0,1,1.4-.7h.5l1.2.2,10.6,3.5a3.8,3.8,0,0,1,1.5.9,3,3,0,0,1,.8,1.6,2.8,2.8,0,0,1-.7,2.3,1.3,1.3,0,0,1-.7.6A2.6,2.6,0,0,1,271,53.6Z" style="fill: #d89194;stroke: #fff;stroke-miterlimit: 10;stroke-width: 1.015297588295509px"/>
        <path d="M260,44.4l1.1.2L271.7,48a4.1,4.1,0,0,1,1.3.8,2.7,2.7,0,0,1,.7,1.4,3,3,0,0,1-.5,2.1l-.6.5a3,3,0,0,1-1.6.5h-1l-10.5-3.4-.6-.2-.3-.3a2.3,2.3,0,0,1-1.1-1.5,2.3,2.3,0,0,1,.8-2.6,3.4,3.4,0,0,1,1.2-.6h.5m0-.7h-.6a4.8,4.8,0,0,0-1.6.8,3.3,3.3,0,0,0-1,3.4,3.5,3.5,0,0,0,1.3,1.9l.5.3.7.3,10.5,3.4.9.2h.3a3.3,3.3,0,0,0,1.9-.6,1.9,1.9,0,0,0,.8-.7,3.4,3.4,0,0,0,.8-2.6,5.1,5.1,0,0,0-.9-1.8,3.7,3.7,0,0,0-1.7-1l-10.6-3.4-1.3-.2Z" style="fill: #00dee7;stroke: #fff;stroke-miterlimit: 10;stroke-width: 1.015297588295509px"/>
      </g>
      <circle cx="270.8" cy="50.6" r="1.1" style="fill: none;stroke: #fff;stroke-miterlimit: 10;stroke-width: 1.015297588295509px"/>
      <circle cx="260.5" cy="47.3" r="1.1" style="fill: none;stroke: #fff;stroke-miterlimit: 10;stroke-width: 1.015297588295509px"/>
    </g>
    <circle cx="277.6" cy="42.9" r="1.1" style="fill: none;stroke: #fff;stroke-miterlimit: 10;stroke-width: 1.015297588295509px"/>
    <circle cx="277.6" cy="57.9" r="1.1" style="fill: none;stroke: #fff;stroke-miterlimit: 10;stroke-width: 1.015297588295509px"/>
    <circle cx="260.5" cy="29.7" r="1.1" style="fill: none;stroke: #fff;stroke-miterlimit: 10;stroke-width: 1.015297588295509px"/>
    <circle cx="260.5" cy="71.2" r="1.1" style="fill: none;stroke: #fff;stroke-miterlimit: 10;stroke-width: 1.015297588295509px"/>
    <g>
      <g>
        <path d="M395.4,63.3a3.5,3.5,0,0,1,3.7-2.9,3.4,3.4,0,0,1,3.6,2.9v.3a7.2,7.2,0,0,0,2.2,4.9,7.6,7.6,0,0,0,5,1.9,7.1,7.1,0,0,0,4.8-1.9,6.4,6.4,0,0,0,2.2-4.9v-.3a3.7,3.7,0,0,1,7.3,0v.3c0,7.3-6.5,13.2-14.3,13.2s-14.5-5.9-14.5-13.2Z" style="fill: #ecf0f1;stroke: #fff;stroke-miterlimit: 10;stroke-width: 1.015297588295509px"/>
        <path d="M395.4,65.1a3.5,3.5,0,0,1,3.7-3,3.4,3.4,0,0,1,3.6,3v.2a7,7,0,0,0,2.2,4.9,7.1,7.1,0,0,0,5,1.9,6.6,6.6,0,0,0,4.8-1.9,6.3,6.3,0,0,0,2.2-4.9v-.2a3.7,3.7,0,0,1,7.3,0v.2c0,7.3-6.5,13.2-14.3,13.2s-14.5-5.9-14.5-13.2Z" style="fill: #557490"/>
      </g>
      <circle cx="420.3" cy="65.7" r="1.1" style="fill: none;stroke: #fff;stroke-miterlimit: 10;stroke-width: 1.015297588295509px"/>
      <circle cx="399" cy="65.7" r="1.1" style="fill: none;stroke: #fff;stroke-miterlimit: 10;stroke-width: 1.015297588295509px"/>
    </g>
    <circle cx="421.7" cy="34.2" r="0.9" style="fill: #00dee7;stroke: #fff;stroke-miterlimit: 10;stroke-width: 1.015297588295509px"/>
    <path d="M424.6,35.9a3.5,3.5,0,0,1-3.7,2.9c-2,0-3.6-1.2-3.7-2.9v-.3a7,7,0,0,0-2.2-4.9,7.4,7.4,0,0,0-5-2,7,7,0,0,0-5,2,6.6,6.6,0,0,0-2.2,4.9v.3a3.5,3.5,0,0,1-3.7,2.9,3.5,3.5,0,0,1-3.7-2.9v-.3c0-7.4,6.6-13.4,14.6-13.4s14.6,6,14.6,13.4Z" style="fill: #d89194;stroke: #fff;stroke-miterlimit: 10;stroke-width: 1.015297588295509px"/>
    <path d="M402.2,60.4a4.4,4.4,0,0,0-3.2-1.2,4.7,4.7,0,0,0-3.2,1.2V38.2a4.8,4.8,0,0,0,3.2,1.3,4.4,4.4,0,0,0,3.2-1.3" style="fill: #557490"/>
    <circle cx="420.6" cy="35.7" r="1.1" style="fill: none;stroke: #fff;stroke-miterlimit: 10;stroke-width: 1.015297588295509px"/>
    <circle cx="399" cy="35.4" r="1.1" style="fill: none;stroke: #fff;stroke-miterlimit: 10;stroke-width: 1.015297588295509px"/>
    <path d="M333.5,53.9H321.2a3.2,3.2,0,0,1-1.9-1.5,3.2,3.2,0,0,1,0-3.5,3.7,3.7,0,0,1,1.3-1.2,3.9,3.9,0,0,1,1.8-.4h11.2a4.1,4.1,0,0,1,1.9.4,4,4,0,0,1,1.4,1.5,3.6,3.6,0,0,1,.1,2.7,4.7,4.7,0,0,1-.6.9,3.7,3.7,0,0,1-2,1.2Z" style="fill: #21a9b0"/>
    <circle cx="333.5" cy="50.6" r="1.1" style="fill: none;stroke: #fff;stroke-miterlimit: 10;stroke-width: 1.015297588295509px"/>
    <circle cx="322.7" cy="50.5" r="1.1" style="fill: none;stroke: #fff;stroke-miterlimit: 10;stroke-width: 1.015297588295509px"/>
    <g>
      <path d="M449.4,41.8V76a3.6,3.6,0,0,1-7.1,0V41.4a3.3,3.3,0,0,1,3.5-2.7,3.4,3.4,0,0,1,3.6,2.7Z" style="fill: #ecf0f1;stroke: #fff;stroke-miterlimit: 10;stroke-width: 1.015297588295509px"/>
      <circle cx="445.8" cy="43.3" r="1.1" style="fill: #00dee7;stroke: #fff;stroke-miterlimit: 10;stroke-width: 1.015297588295509px"/>
      <path d="M451.3,41.8V76a3.6,3.6,0,0,1-7.1,0V41.4c.1-1.5,1.7-2.7,3.5-2.7a3.4,3.4,0,0,1,3.6,2.7Z" style="fill: #d89194;stroke: #fff;stroke-miterlimit: 10;stroke-width: 1.015297588295509px"/>
      <circle cx="447.7" cy="43.3" r="1.1" style="fill: none;stroke: #fff;stroke-miterlimit: 10;stroke-width: 1.015297588295509px"/>
    </g>
    <path d="M465.5,26.6c0,2-2,3.6-4.4,3.6h-9.4v8.5a7.8,7.8,0,0,0-4.5-1.5,7.2,7.2,0,0,0-4.5,1.5V30.2h-9.9c-2.5,0-4.5-1.6-4.5-3.6s2-3.5,4.5-3.5h28.3C463.5,23.1,465.5,24.7,465.5,26.6Z" style="fill: #21a9b0"/>
    <circle cx="432.3" cy="26.6" r="1.3" style="fill: none;stroke: #fff;stroke-miterlimit: 10;stroke-width: 1.015297588295509px"/>
    <path d="M500.2,35V60.5a5.6,5.6,0,0,0-3.6-1.2,5.4,5.4,0,0,0-3.6,1.2V35a6.8,6.8,0,0,0-2.1-4.7,7,7,0,0,0-9.6,0,6.8,6.8,0,0,0-2.1,4.7V60.5a6,6,0,0,0-7.2,0V35c0-7,6.4-12.8,14.1-12.8S500.2,28,500.2,35Z" style="fill: #557490"/>
    <g>
      <path d="M471.7,63.3a3.5,3.5,0,0,1,3.6-3,3.5,3.5,0,0,1,3.7,3v.2a6.8,6.8,0,0,0,2.2,4.9,7,7,0,0,0,4.9,1.9,7,7,0,0,0,7.1-6.8v-.2a3.7,3.7,0,0,1,7.3,0v.2c0,7.3-6.5,13.2-14.4,13.2s-14.4-5.9-14.4-13.2Z" style="fill: #ecf0f1;stroke: #fff;stroke-miterlimit: 10;stroke-width: 1.015297588295509px"/>
      <path d="M471.7,65a3.5,3.5,0,0,1,3.6-3,3.5,3.5,0,0,1,3.7,3v.2a6.6,6.6,0,0,0,2.2,4.9,7,7,0,0,0,4.9,1.9,6.7,6.7,0,0,0,4.9-1.9,6.6,6.6,0,0,0,2.2-4.9V65a3.7,3.7,0,0,1,7.3,0v.2c0,7.3-6.5,13.2-14.4,13.2s-14.4-5.9-14.4-13.2Z" style="fill: #d89194;stroke: #fff;stroke-miterlimit: 10;stroke-width: 1.015297588295509px"/>
    </g>
    <circle cx="496.6" cy="65.6" r="1.1" style="fill: none;stroke: #fff;stroke-miterlimit: 10;stroke-width: 1.015297588295509px"/>
    <circle cx="475.3" cy="65.6" r="1.1" style="fill: none;stroke: #fff;stroke-miterlimit: 10;stroke-width: 1.015297588295509px"/>
    <path d="M540.3,73.8A2.8,2.8,0,0,1,539,78a4.1,4.1,0,0,1-1.9.4,3.4,3.4,0,0,1-3-1.5L523.2,60.8l-2.6-1.1V75.3a3.6,3.6,0,0,1-7.2,0V40.4a5.8,5.8,0,0,0,3.6,1.2,6,6,0,0,0,3.6-1.2v8.2a6.1,6.1,0,0,0,2.1,4.7,6.6,6.6,0,0,0,4.8,1.9,7,7,0,0,0,4.9-1.9,6.4,6.4,0,0,0,2.1-4.7V40.4a6,6,0,0,0,7.2,0v8.2c0,5.8-4.3,10.7-10.1,12.2Z" style="fill: #557490"/>
    <g>
      <path d="M541.7,37.4a3.4,3.4,0,0,1-3.6,3,3.5,3.5,0,0,1-3.7-3v-.2a6.6,6.6,0,0,0-2.2-4.9,7.3,7.3,0,0,0-9.8,0,6.6,6.6,0,0,0-2.2,4.9v.2a3.4,3.4,0,0,1-3.6,3,3.6,3.6,0,0,1-3.7-3v-.2c0-7.3,6.5-13.2,14.4-13.2s14.4,5.9,14.4,13.2Z" style="fill: #ecf0f1;stroke: #fff;stroke-miterlimit: 10;stroke-width: 1.015297588295509px"/>
      <path d="M541.7,35.7a3.4,3.4,0,0,1-3.6,2.9c-1.9,0-3.6-1.2-3.7-2.9v-.3a6.4,6.4,0,0,0-2.2-4.8,7,7,0,0,0-9.8,0,6.4,6.4,0,0,0-2.2,4.8v.3a3.4,3.4,0,0,1-3.6,2.9,3.5,3.5,0,0,1-3.7-2.9v-.3c0-7.2,6.5-13.2,14.4-13.2s14.4,6,14.4,13.2Z" style="fill: #21a9b0"/>
    </g>
    <circle cx="516.8" cy="35.1" r="1.1" style="fill: none;stroke: #fff;stroke-miterlimit: 10;stroke-width: 1.015297588295509px"/>
    <path d="M533.4,76.4,523.7,63a5.6,5.6,0,0,1-.5-.8c-.1-.2-.1-.4-.2-.6a4.2,4.2,0,0,1,0-2.7,3.6,3.6,0,0,1,3.2-2.3,4.6,4.6,0,0,1,2,.5,4.6,4.6,0,0,1,1.6,1.5l9.8,13.6a4.8,4.8,0,0,1,.9,2.1,4.5,4.5,0,0,1-.4,2.3,3.4,3.4,0,0,1-2.4,1.8h-1.2a5.5,5.5,0,0,1-2.4-1.2Z" style="fill: #00dee7;stroke: #fff;stroke-miterlimit: 10;stroke-width: 1.015297588295509px"/>
    <circle cx="538.1" cy="35.1" r="1.1" style="fill: none;stroke: #fff;stroke-miterlimit: 10;stroke-width: 1.015297588295509px"/>
    <circle cx="527.9" cy="60" r="1.1" style="fill: #00dee7;stroke: #fff;stroke-miterlimit: 10;stroke-width: 1.015297588295509px"/>
    <circle cx="537.8" cy="74.3" r="1.1" style="fill: #00dee7;stroke: #fff;stroke-miterlimit: 10;stroke-width: 1.015297588295509px"/>
    <path d="M512.9,74.4v-14a3.1,3.1,0,0,1,.1-1,6.4,6.4,0,0,1,.2-.7,4,4,0,0,1,1.7-2.4,3.8,3.8,0,0,1,4.3,0,4.6,4.6,0,0,1,1.5,1.6,4.6,4.6,0,0,1,.5,2.3V74.5a5.9,5.9,0,0,1-.5,2.3,5.2,5.2,0,0,1-1.8,1.8,3.9,3.9,0,0,1-3.3.2,4.1,4.1,0,0,1-1.1-.7,4.6,4.6,0,0,1-1.5-2.6A3.7,3.7,0,0,1,512.9,74.4Z" style="fill: #d89194;stroke: #fff;stroke-miterlimit: 10;stroke-width: 1.015297588295509px"/>
    <circle cx="517.1" cy="59.5" r="1.1" style="fill: none;stroke: #fff;stroke-miterlimit: 10;stroke-width: 1.015297588295509px"/>
    <circle cx="517.1" cy="75.4" r="1.1" style="fill: none;stroke: #fff;stroke-miterlimit: 10;stroke-width: 1.015297588295509px"/>
    <path d="M534.2,75.6l-9.7-13.4a5.6,5.6,0,0,1-.5-.8,1.4,1.4,0,0,0-.2-.6,4.2,4.2,0,0,1,0-2.7,3.7,3.7,0,0,1,3.2-2.3,4.6,4.6,0,0,1,2,.5,6.1,6.1,0,0,1,1.7,1.5l9.7,13.6a4.3,4.3,0,0,1,.9,2.1,3.6,3.6,0,0,1-2.8,4.1h-1.2a5.5,5.5,0,0,1-2.4-1.2Z" style="fill: #d89194;stroke: #fff;stroke-miterlimit: 10;stroke-width: 1.015297588295509px"/>
    <circle cx="527.1" cy="59.2" r="1" style="fill: none;stroke: #fff;stroke-miterlimit: 10;stroke-width: 1.015297588295509px"/>
    <circle cx="537.3" cy="73.7" r="1" style="fill: none;stroke: #fff;stroke-miterlimit: 10;stroke-width: 1.015297588295509px"/>
    <path d="M559.2,34a5.1,5.1,0,0,0-3.5-1.2,5.4,5.4,0,0,0-3.6,1.2V25.3c0-1.7,1.6-3,3.6-3a3.3,3.3,0,0,1,3.5,3Zm21.5,0a5.6,5.6,0,0,0-3.6-1.2,5.1,5.1,0,0,0-3.5,1.2V25.3a3.3,3.3,0,0,1,3.5-3c2,0,3.6,1.3,3.6,3Z" style="fill: #d89194;stroke: #fff;stroke-miterlimit: 10;stroke-width: 1.015297588295509px"/>
    <g>
      <path d="M552.1,37.2a3.6,3.6,0,0,1,3.7-2.9c1.9,0,3.6,1.3,3.7,2.9v.3a6.8,6.8,0,0,0,2.2,4.9,7.3,7.3,0,0,0,4.9,1.9,6.9,6.9,0,0,0,4.8-1.9,6.4,6.4,0,0,0,2.2-4.9v-.3a3.8,3.8,0,0,1,7.4,0v.3c0,7.3-6.5,13.2-14.4,13.2s-14.5-5.9-14.5-13.2Z" style="fill: #ecf0f1;stroke: #fff;stroke-miterlimit: 10;stroke-width: 1.015297588295509px"/>
      <path d="M552.1,39a3.6,3.6,0,0,1,3.7-3,3.5,3.5,0,0,1,3.7,3v.2a6.8,6.8,0,0,0,2.2,4.9,6.9,6.9,0,0,0,4.9,1.9,6.5,6.5,0,0,0,4.8-1.9,6.4,6.4,0,0,0,2.2-4.9V39a3.8,3.8,0,0,1,7.4,0v.2c0,7.3-6.5,13.2-14.4,13.2s-14.5-5.9-14.5-13.2Z" style="fill: #557490"/>
    </g>
    <circle cx="577.1" cy="39.6" r="1.1" style="fill: none;stroke: #fff;stroke-miterlimit: 10;stroke-width: 1.015297588295509px"/>
    <circle cx="555.8" cy="39.6" r="1.1" style="fill: none;stroke: #fff;stroke-miterlimit: 10;stroke-width: 1.015297588295509px"/>
    <path d="M562.6,73.6V59.4c0-.4.1-.7.1-1.1a6.4,6.4,0,0,0,.2-.7,4.4,4.4,0,0,1,1.8-2.4,3.8,3.8,0,0,1,4.3,0,4.1,4.1,0,0,1,1.6,1.6,6.9,6.9,0,0,1,.5,2.4V73.8a5.3,5.3,0,0,1-.6,2.4,3.9,3.9,0,0,1-1.8,1.8,4,4,0,0,1-3.4.1,3.4,3.4,0,0,1-1.1-.7,5.3,5.3,0,0,1-1.5-2.6A4.9,4.9,0,0,1,562.6,73.6Z" style="fill: #d89194;stroke: #fff;stroke-miterlimit: 10;stroke-width: 1.015297588295509px"/>
    <circle cx="566.8" cy="58.2" r="1.3" style="fill: none;stroke: #fff;stroke-miterlimit: 10;stroke-width: 1.015297588295509px"/>
    <circle cx="566.9" cy="74.8" r="1.3" style="fill: none;stroke: #fff;stroke-miterlimit: 10;stroke-width: 1.015297588295509px"/>
    <g>
      <path d="M79.3,41.2a15.2,15.2,0,0,0-7.5,6.3V25.4c0-1.7,1.7-3.1,3.7-3.1s3.8,1.4,3.8,3.1Zm21.2-15.8V47.5a15.9,15.9,0,0,0-7.6-6.3V25.4c0-1.7,1.6-3.1,3.8-3.1S100.5,23.7,100.5,25.4ZM92.7,58.9a6.4,6.4,0,0,0,4,1.3,6.8,6.8,0,0,0,4-1.3V75.2c0,1.7-1.8,3.1-4,3.1s-4-1.4-4-3.1Z" style="fill: #21a9b0;stroke: #fff;stroke-miterlimit: 10;stroke-width: 1.015297588295509px"/>
      <path d="M100.4,56.1a3.6,3.6,0,0,1-3.7,3,3.5,3.5,0,0,1-3.7-3v-.2A6.6,6.6,0,0,0,90.8,51a6.9,6.9,0,0,0-4.9-1.9A6.5,6.5,0,0,0,81.1,51a6.3,6.3,0,0,0-2.2,4.9v.2a3.6,3.6,0,0,1-3.7,3,3.4,3.4,0,0,1-3.6-3v-.2c0-7.3,6.4-13.2,14.3-13.2s14.5,5.9,14.5,13.2Z" style="fill: #ecf0f1;stroke: #fff;stroke-miterlimit: 10;stroke-width: 1.015297588295509px"/>
      <path d="M100.4,54.4a3.5,3.5,0,0,1-3.7,2.9c-1.9,0-3.6-1.2-3.7-2.9v-.3a6.4,6.4,0,0,0-2.2-4.8,7,7,0,0,0-4.9-2,6.6,6.6,0,0,0-4.8,2,6.1,6.1,0,0,0-2.2,4.8v.3a3.5,3.5,0,0,1-3.7,2.9,3.4,3.4,0,0,1-3.6-2.9v-.3c0-7.2,6.4-13.2,14.3-13.2s14.5,6,14.5,13.2Z" style="fill: #557490;stroke: #fff;stroke-miterlimit: 10;stroke-width: 1.015297588295509px"/>
      <circle cx="96.7" cy="54.1" r="1.1" style="fill: none;stroke: #fff;stroke-miterlimit: 10;stroke-width: 1.015297588295509px"/>
      <path d="M100.5,25.4V47.5a15.9,15.9,0,0,0-7.6-6.3V25.4c0-1.7,1.6-3.1,3.8-3.1S100.5,23.7,100.5,25.4Z" style="fill: #21a9b0;stroke: #fff;stroke-miterlimit: 10;stroke-width: 1.015297588295509px"/>
      <path d="M92.7,58.9a6.4,6.4,0,0,0,4,1.3,6.8,6.8,0,0,0,4-1.3V75.2c0,1.7-1.8,3.1-4,3.1s-4-1.4-4-3.1Z" style="fill: #d89194;stroke: #fff;stroke-miterlimit: 10;stroke-width: 1.015297588295509px"/>
    </g>
    <g>
      <g>
        <ellipse cx="45.6" cy="42.7" rx="1.2" ry="1.1" style="fill: #00dee7;stroke: #fff;stroke-miterlimit: 10;stroke-width: 1.015297588295509px"/>
        <path d="M51.4,41.2V75.8c0,1.7-1.9,3.1-4.3,3.1s-4.2-1.4-4.2-3.1V40.9c.2-1.6,2-2.9,4.2-2.9s4.1,1.2,4.3,2.9Z" style="fill: #d89194;stroke: #fff;stroke-miterlimit: 10;stroke-width: 1.015297588295509px"/>
      </g>
      <path d="M65.4,26c0,2-2,3.6-4.5,3.6H51.6V38a8.5,8.5,0,0,0-4.5-1.4A7.8,7.8,0,0,0,42.6,38V29.6H32.7c-2.5,0-4.5-1.6-4.5-3.6s2-3.6,4.5-3.6H60.9C63.4,22.4,65.4,24,65.4,26Z" style="fill: #557490"/>
      <circle cx="31.9" cy="25.9" r="1.3" style="fill: none;stroke: #fff;stroke-miterlimit: 10;stroke-width: 1.015297588295509px"/>
      <circle cx="47" cy="41.6" r="1.1" style="fill: none;stroke: #fff;stroke-miterlimit: 10;stroke-width: 1.015297588295509px"/>
    </g>
    <circle cx="176.8" cy="66.1" r="2" style="fill: #21a9b0;stroke: #fff;stroke-miterlimit: 10;stroke-width: 1.015297588295509px"/>
    <path d="M192.2,47.5c2.1,0,3.8,1.4,3.8,3.2s-1.7,3.1-3.8,3.1h-7.4V75.1c0,1.8-1.7,3.2-3.8,3.2s-3.9-1.4-3.9-3.2V39.3a7.2,7.2,0,0,0,3.9,1.2,6,6,0,0,0,3.8-1.3v8.3Z" style="fill: #557490;stroke: #fff;stroke-miterlimit: 10;stroke-width: 1.015297588295509px"/>
    <circle cx="130.5" cy="78.3" r="3.1" style="fill: #ecf0f1;stroke: #fff;stroke-miterlimit: 10;stroke-width: 1.015297588295509px"/>
    <circle cx="176.8" cy="57.9" r="3.1" style="fill: #ecf0f1;stroke: #fff;stroke-miterlimit: 10;stroke-width: 0.5149668099243903px"/>
    <circle cx="235.5" cy="39.7" r="3.1" style="fill: #ecf0f1;stroke: #fff;stroke-miterlimit: 10;stroke-width: 0.5149668099243903px"/>
    <circle cx="326.7" cy="68.9" r="3.1" style="fill: #ecf0f1;stroke: #fff;stroke-miterlimit: 10;stroke-width: 1.015297588295509px"/>
    <circle cx="393.9" cy="49.5" r="3.1" style="fill: #ecf0f1;stroke: #fff;stroke-miterlimit: 10;stroke-width: 1.015297588295509px"/>
    <circle cx="402.6" cy="49.3" r="3.1" style="fill: #ecf0f1;stroke: #fff;stroke-miterlimit: 10;stroke-width: 1.015297588295509px"/>
    <circle cx="486.1" cy="79.1" r="3.1" style="fill: #ecf0f1;stroke: #fff;stroke-miterlimit: 10;stroke-width: 1.015297588295509px"/>
    <circle cx="486.1" cy="20.9" r="3.1" style="fill: #ecf0f1;stroke: #fff;stroke-miterlimit: 10;stroke-width: 1.015297588295509px"/>
    <circle cx="512.9" cy="49.3" r="3.1" style="fill: #ecf0f1;stroke: #fff;stroke-miterlimit: 10;stroke-width: 1.015297588295509px"/>
    <circle cx="536.3" cy="64.6" r="3.1" style="fill: #ecf0f1;stroke: #fff;stroke-miterlimit: 10;stroke-width: 1.015297588295509px"/>
    <circle cx="529.8" cy="69.6" r="3.1" style="fill: #ecf0f1;stroke: #fff;stroke-miterlimit: 10;stroke-width: 1.015297588295509px"/>
    <circle cx="541.7" cy="49.3" r="3.1" style="fill: #ecf0f1;stroke: #fff;stroke-miterlimit: 10;stroke-width: 1.015297588295509px"/>
    <circle cx="277" cy="26.1" r="3.1" style="fill: #ecf0f1;stroke: #fff;stroke-miterlimit: 10;stroke-width: 0.5149668099243903px"/>
    <g>
      <path d="M74.9,70.4A1.1,1.1,0,1,1,76,69.3,1.1,1.1,0,0,1,74.9,70.4Z" style="fill: none;stroke: #fff;stroke-miterlimit: 10;stroke-width: 1.015297588295509px"/>
      <path d="M74.9,73.6A1.1,1.1,0,1,1,76,72.5,1.1,1.1,0,0,1,74.9,73.6Z" style="fill: none;stroke: #fff;stroke-miterlimit: 10;stroke-width: 1.015297588295509px"/>
      <path d="M74.9,76.7a1,1,0,0,1-1.1-1,1.1,1.1,0,1,1,2.2,0A1,1,0,0,1,74.9,76.7Z" style="fill: none;stroke: #fff;stroke-miterlimit: 10;stroke-width: 1.015297588295509px"/>
    </g>
  </g>
</svg>
